<svg xmlns="http://www.w3.org/2000/svg" version="1.1" xmlns:xlink="http://www.w3.org/1999/xlink" width="512" height="512" x="0" y="0" viewBox="0 0 32 32" style="enable-background:new 0 0 512 512" xml:space="preserve" class=""><g><path d="M24.88 3.84H4.78A2.78 2.78 0 0 0 2 6.62v2.72h25.66V6.62a2.78 2.78 0 0 0-2.78-2.78zM5.933 7.382a.792.792 0 1 1 0-1.584.792.792 0 0 1 0 1.584zm2.791 0a.792.792 0 1 1 0-1.584.792.792 0 0 1 0 1.584zm2.791 0a.792.792 0 1 1 0-1.584.792.792 0 0 1 0 1.584zM23.819 18.311 17.99 24.14c-.13.12-.21.28-.24.45l-.44 2.59c-.09.57.4 1.07.98.97l2.58-.44c.18-.03.33-.11.46-.23l5.83-5.83zM16.271 24.338c.092-.515.333-.96.7-1.3l5.787-5.788 2.15-2.15a3.812 3.812 0 0 1 2.727-1.137l.024.002V10.84H2v12.21c0 1.54 1.24 2.78 2.78 2.78h11.238zM29.31 16.16c-.93-.93-2.42-.93-3.34 0l-1.09 1.09 3.34 3.34 1.09-1.09c.92-.92.92-2.42 0-3.34z" fill="#00b2a9" opacity="1" data-original="#000000" class=""></path></g></svg>