<svg xmlns="http://www.w3.org/2000/svg" version="1.1" xmlns:xlink="http://www.w3.org/1999/xlink" width="512" height="512" x="0" y="0" viewBox="0 0 512 512" style="enable-background:new 0 0 512 512" xml:space="preserve" class=""><g><linearGradient id="a" x1="94.871" x2="495.986" y1="531.598" y2="42.357" gradientUnits="userSpaceOnUse"><stop stop-opacity="1" stop-color="#32a571" offset="0"></stop><stop stop-opacity="1" stop-color="#32a571" offset="0.21621621621621623"></stop><stop stop-opacity="1" stop-color="#32a571" offset="0.5057915057915058"></stop><stop stop-opacity="1" stop-color="#32a571" offset="0.6640926640926641"></stop><stop stop-opacity="1" stop-color="#32a571" offset="0.6795366795366795"></stop><stop stop-opacity="1" stop-color="#32a571" offset="0.694980694980695"></stop><stop stop-opacity="1" stop-color="#32a571" offset="0.749034749034749"></stop><stop stop-opacity="1" stop-color="#32a571" offset="0.8416988416988417"></stop><stop stop-opacity="1" stop-color="#32a571" offset="1"></stop></linearGradient><path fill="url(#a)" fill-rule="evenodd" d="M467.118 31.9a21.2 21.2 0 0 1 27 12.836L512 95l-2.821 2.514a75.928 75.928 0 0 0-25.081 61.53l.41 6H92.75zM21.167 189.756h98.173v62.883a12.354 12.354 0 1 0 24.708 0v-62.883h346.043a21.159 21.159 0 0 1 21.142 21.144v53.355l-3.51 1.424a75.392 75.392 0 0 0 0 139.726l3.51 1.415v53.351a21.164 21.164 0 0 1-21.142 21.151H144.048v-62.881a12.354 12.354 0 1 0-24.708 0v62.879h-98.2A21.166 21.166 0 0 1 0 460.169v-53.351l3.5-1.418a75.639 75.639 0 0 0 47.058-69.86A75.637 75.637 0 0 0 3.5 265.677L0 264.253V210.9a21.155 21.155 0 0 1 21.057-21.142zm122.881 114.776a12.354 12.354 0 1 0-24.708 0v62.007a12.354 12.354 0 1 0 24.708 0z" opacity="1" data-original="url(#a)" class=""></path></g></svg>