<svg xmlns="http://www.w3.org/2000/svg" version="1.1" xmlns:xlink="http://www.w3.org/1999/xlink" width="512" height="512" x="0" y="0" viewBox="0 0 363.457 363.457" style="enable-background:new 0 0 512 512" xml:space="preserve" class=""><g><path d="M211.331 190.817a9.93 9.93 0 0 0-7.071-2.922 9.93 9.93 0 0 0-7.07 2.922l-32.129 32.129-24.403-24.403 32.129-32.129c3.897-3.899 3.897-10.243-.001-14.142l-11.125-11.125a9.93 9.93 0 0 0-7.071-2.922 9.925 9.925 0 0 0-7.07 2.923l-32.128 32.128-18.256-18.256a9.93 9.93 0 0 0-7.071-2.922 9.93 9.93 0 0 0-7.07 2.922L66.95 171.062c-3.899 3.899-3.899 10.243 0 14.143l3.802 3.802a31.071 31.071 0 0 0-4.496 3.718l-46.679 46.679c-5.836 5.835-9.049 13.62-9.049 21.92 0 8.301 3.214 16.086 9.049 21.92l17.943 17.943-32.394 32.395c-6.835 6.835-6.835 17.915 0 24.749 3.417 3.417 7.896 5.125 12.374 5.125s8.957-1.708 12.374-5.125l32.395-32.395 18.091 18.091c5.834 5.835 13.619 9.048 21.92 9.048s16.086-3.213 21.92-9.048l46.679-46.679a31.021 31.021 0 0 0 3.719-4.497l3.802 3.802a9.93 9.93 0 0 0 7.07 2.923 9.935 9.935 0 0 0 7.072-2.923l16.04-16.042a9.925 9.925 0 0 0 2.925-7.072 9.925 9.925 0 0 0-2.924-7.071l-18.255-18.255 32.129-32.129c3.898-3.899 3.898-10.244-.001-14.142l-11.125-11.125zM358.33 5.126c-6.834-6.834-17.914-6.834-24.748 0l-32.686 32.686-17.944-17.944c-5.834-5.835-13.619-9.048-21.92-9.048-8.301 0-16.086 3.213-21.92 9.048l-46.679 46.679a31.098 31.098 0 0 0-3.719 4.497l-3.802-3.802a9.931 9.931 0 0 0-7.071-2.923 9.93 9.93 0 0 0-7.071 2.923l-16.042 16.042a9.929 9.929 0 0 0-2.924 7.072 9.926 9.926 0 0 0 2.924 7.071l111.447 111.448a9.931 9.931 0 0 0 7.071 2.923 9.93 9.93 0 0 0 7.071-2.923l16.043-16.043c3.899-3.899 3.899-10.243 0-14.142l-3.801-3.801a31.014 31.014 0 0 0 4.496-3.719l46.679-46.679c5.835-5.834 9.049-13.62 9.049-21.92s-3.213-16.086-9.049-21.92l-18.09-18.09 32.686-32.686c6.835-6.835 6.835-17.915 0-24.749z" fill="#631d76" opacity="1" data-original="#000000" class=""></path></g></svg>