<svg xmlns="http://www.w3.org/2000/svg" version="1.1" xmlns:xlink="http://www.w3.org/1999/xlink" width="512" height="512" x="0" y="0" viewBox="0 0 448.334 448.334" style="enable-background:new 0 0 512 512" xml:space="preserve" class=""><g><path d="M362.806 278.708c-5.486-12.602-8.572-26.77-8.572-41.686 0-6.328.561-12.423 1.621-18.299 4.52-25.415 18.36-46.409 37.439-60.018a94.325 94.325 0 0 1 10.723-6.53c-25.749-40.627-67.708-44.103-80.895-45.49-28.68-2.992-69.111 22.367-91.059 22.367h-.592c-21.946 0-62.379-25.359-91.059-22.367-14.276 1.465-59.916 9.555-87.441 53.408-9.665 15.385-17.114 34.322-20.169 59.315-1.093 9.009-1.622 18.424-1.498 28.867.125 10.489.967 20.597 2.4 30.605 3.087 21.369 8.886 41.461 16.367 59.924 8.323 20.48 18.735 38.857 29.801 54.499 24.474 34.649 52.186 54.655 67.835 55.014 32.109.717 60.009-21.003 83.047-20.442.25.078.498.078.717.063l.311-.031.281.031c.219.016.467 0 .686-.078 23.037-.592 50.969 21.144 83.141 20.427 15.586-.358 43.332-20.38 67.803-55.03 11.066-15.641 21.478-34.049 29.739-54.545 1.246-3.055 2.432-6.157 3.615-9.306-23.94-7.475-43.643-26.21-54.241-50.698z" fill="#bfbfbf" opacity="1" data-original="#000000" class=""></path><path d="M288.176 73.384C312.867 44.174 311.9 2.128 309.655.274c-2.213-1.886-42.987 5.61-68.27 33.831-25.282 28.259-23.722 71.255-21.478 73.125 2.213 1.871 43.612-4.645 68.269-33.846z" fill="#bfbfbf" opacity="1" data-original="#000000" class=""></path></g></svg>