<svg xmlns="http://www.w3.org/2000/svg" version="1.1" xmlns:xlink="http://www.w3.org/1999/xlink" width="512" height="512" x="0" y="0" viewBox="0 0 512 512" style="enable-background:new 0 0 512 512" xml:space="preserve" class=""><g><path d="M477.211 72.908h-73.289a8 8 0 0 0 0 16h73.289c9.809 0 17.789 7.98 17.789 17.79v285.058H17V106.698c0-9.809 7.98-17.79 17.789-17.79h73.276a8 8 0 0 0 0-16H34.789C16.158 72.908 1 88.066 1 106.698v310.45c0 18.632 15.158 33.79 33.789 33.79h114.207l-24.479 42.007c-2.194 3.764-2.223 8.242-.076 11.979 2.154 3.748 6.158 6.076 10.45 6.076H377.11c4.291 0 8.294-2.327 10.448-6.074 2.147-3.735 2.121-8.213-.072-11.98l-24.48-42.007h114.205c18.631 0 33.789-15.158 33.789-33.79v-310.45c0-18.633-15.158-33.791-33.789-33.791zM370.164 495H141.837l25.678-44.062h176.972zm107.047-60.062H34.789c-9.809 0-17.789-7.98-17.789-17.79v-9.393h478v9.393c0 9.81-7.98 17.79-17.789 17.79zM131.072 285.587l-10.925-4.626c28.522 47.068 79.981 76.608 135.852 76.608 36.486 0 72.122-12.693 100.343-35.741a8.001 8.001 0 0 1 10.121 12.393c-31.07 25.375-70.3 39.349-110.464 39.349-62.355 0-119.733-33.413-150.847-86.485l-3.502 12.759a8.004 8.004 0 0 1-7.71 5.884 7.985 7.985 0 0 1-2.122-.288 8 8 0 0 1-5.598-9.832l8.988-32.744a8 8 0 0 1 10.834-5.249l31.269 13.24a8 8 0 1 1-6.239 14.732zM307.764 40.048a7.999 7.999 0 0 1 10.32-4.635c32.779 12.462 60.8 34.277 81.032 63.087 20.701 29.478 31.644 64.165 31.644 100.31 0 30.708-7.863 60.253-22.875 86.498l12.788-3.343a8 8 0 1 1 4.047 15.479l-32.852 8.588a8.006 8.006 0 0 1-6.514-1.119 8 8 0 0 1-3.448-5.639l-4.168-33.699a7.999 7.999 0 0 1 6.957-8.921 7.998 7.998 0 0 1 8.922 6.958l1.462 11.825C408 252.089 414.76 225.951 414.76 198.81c0-65.511-41.136-125.165-102.361-148.441a8 8 0 0 1-4.635-10.321zm-52.761-15.987-9.324-9.438a8 8 0 0 1 11.382-11.244l23.863 24.156a8.002 8.002 0 0 1-.871 12.007L252.953 60a7.968 7.968 0 0 1-4.814 1.616 8 8 0 0 1-4.827-14.386l9.46-7.141C166.717 41.814 97.24 112.347 97.24 198.81c0 8.471.683 17.014 2.029 25.393a8 8 0 0 1-15.797 2.54 176.584 176.584 0 0 1-2.232-27.932c0-96.032 77.858-174.211 173.763-174.75zm20.671 48.847h-39.349a8 8 0 0 0-8 8v13.385a106.821 106.821 0 0 0-26.654 11.049l-9.47-9.47a8 8 0 0 0-11.313 0l-27.824 27.823a7.997 7.997 0 0 0-.001 11.314l9.472 9.471a106.826 106.826 0 0 0-11.049 26.653H138.1a8 8 0 0 0-8 8v39.35a8 8 0 0 0 8 8h13.387a106.803 106.803 0 0 0 11.047 26.653l-9.471 9.471a8 8 0 0 0 0 11.313l27.823 27.825a8.002 8.002 0 0 0 11.314 0l9.472-9.472a106.833 106.833 0 0 0 26.653 11.049v13.386a8 8 0 0 0 8 8h39.349a8 8 0 0 0 8-8v-13.386a106.803 106.803 0 0 0 26.654-11.048l9.47 9.471a7.998 7.998 0 0 0 11.313 0l27.825-27.824a7.997 7.997 0 0 0 0-11.314l-9.471-9.471a106.833 106.833 0 0 0 11.049-26.653h13.385a8 8 0 0 0 8-8v-39.35a8 8 0 0 0-8-8h-13.385a106.81 106.81 0 0 0-11.048-26.655l9.47-9.47a8 8 0 0 0 0-11.313l-27.824-27.824a8.002 8.002 0 0 0-11.314 0l-9.47 9.47a106.87 106.87 0 0 0-26.654-11.049V80.908a8 8 0 0 0-8-8zm31.375 49.241a8.002 8.002 0 0 0 10.098-.998l8.309-8.309 16.511 16.51-8.31 8.31a8.002 8.002 0 0 0-.997 10.098 91.157 91.157 0 0 1 13.652 32.938 8.001 8.001 0 0 0 7.846 6.435H365.9v23.35h-11.742a8 8 0 0 0-7.846 6.436c-2.354 11.808-6.948 22.89-13.653 32.938a8 8 0 0 0 .998 10.098l8.311 8.311-16.512 16.511-8.31-8.311a8 8 0 0 0-10.099-.997 91.155 91.155 0 0 1-32.938 13.651 8.002 8.002 0 0 0-6.436 7.846v11.744h-23.349v-11.744a8 8 0 0 0-6.436-7.846c-11.808-2.354-22.89-6.947-32.938-13.652a7.998 7.998 0 0 0-10.098.998l-8.311 8.311-16.51-16.511 8.311-8.311a8.002 8.002 0 0 0 .997-10.098c-6.703-10.044-11.296-21.126-13.651-32.937a8 8 0 0 0-7.846-6.436H146.1v-23.35h11.744a8 8 0 0 0 7.846-6.436c2.354-11.807 6.946-22.888 13.651-32.938a8 8 0 0 0-.997-10.097l-8.311-8.311 16.511-16.51 8.31 8.31a8 8 0 0 0 10.099.997 91.166 91.166 0 0 1 32.938-13.653 8 8 0 0 0 6.436-7.845V88.908h23.349v11.743a8 8 0 0 0 6.437 7.846c11.804 2.353 22.886 6.946 32.936 13.652zm-120.357 76.658c0 38.216 31.091 69.308 69.308 69.308s69.308-31.091 69.308-69.308S294.217 129.5 256 129.5s-69.308 31.091-69.308 69.307zm122.616 0c0 29.394-23.914 53.308-53.308 53.308s-53.308-23.914-53.308-53.308S226.606 145.5 256 145.5s53.308 23.913 53.308 53.307z" fill="#000000" opacity="1" data-original="#000000" class=""></path></g></svg>