<svg xmlns="http://www.w3.org/2000/svg" version="1.1" xmlns:xlink="http://www.w3.org/1999/xlink" width="512" height="512" x="0" y="0" viewBox="0 0 100 100" style="enable-background:new 0 0 512 512" xml:space="preserve" class=""><g transform="matrix(1,0,0,1,0,0)"><path fill="#ffffff" fill-rule="nonzero" d="M49 72.727c0-2.26 2.015-4.09 4.5-4.09s4.5 1.83 4.5 4.09v14.091C58 91.337 53.97 95 49 95H14c-4.97 0-9-3.663-9-8.182V13.182C5 8.663 9.03 5 14 5h35c4.97 0 9 3.663 9 8.182v15c0 2.26-2.015 4.09-4.5 4.09s-4.5-1.83-4.5-4.09v-15H14v73.636h35zm30.636-18H27.5a4.5 4.5 0 0 1 0-9h52.136l-5.046-5.045a4.5 4.5 0 1 1 6.364-6.364l12.728 12.728A4.486 4.486 0 0 1 95 50.228c0 1.152-.44 2.303-1.318 3.182L80.954 66.138a4.5 4.5 0 1 1-6.364-6.364z" opacity="1" data-original="#000000" class=""></path></g></svg>